[img]http://img405.imageshack.us/img405/6220/hangk.jpg[/img]
[code]
:File:: The.Hangover.Part.II.2011.TS.XViD-EP1C
::Video Source:: CiNEDUB
::Audio Source:: Own
::Language:::::: English
::IMDB:::::::::: http://www.imdb.com/title/tt1411697/

Right after the bachelor party in Las Vegas, Phil, Stu, Alan, and Doug jet to Thailand for Stu's wedding. Stu's plan for a subdued pre-wedding brunch, however, goes seriously awry.

::Specs:::::::::
Format                           : AVI
Format/Info                      : Audio Video Interleave
File size                        : 1.37 GiB
Duration                         : 1h 35mn
Overall bit rate                 : 2 060 Kbps
Writing application              : VirtualDubMod 1.5.10.2 (build 2540/release)
Writing library                  : VirtualDubMod build 2540/release

Video
ID                               : 0
Format                           : MPEG-4 Visual
Format profile                   : Advanced Simple@L5
Format settings, BVOP            : Yes
Format settings, QPel            : No
Format settings, GMC             : No warppoints
Format settings, Matrix          : Default (MPEG)
Muxing mode                      : Packed bitstream
Codec ID                         : XVID
Codec ID/Hint                    : XviD
Duration                         : 1h 35mn
Bit rate                         : 1 922 Kbps
Width                            : 688 pixels
Height                           : 336 pixels
Display aspect ratio             : 2.048
Frame rate                       : 25.000 fps
Color space                      : YUV
Chroma subsampling               : 4:2:0
Bit depth                        : 8 bits
Scan type                        : Progressive
Bits/(Pixel*Frame)               : 0.333
Stream size                      : 1.28 GiB (93%)
Writing library                  : XviD 58

Audio
ID                               : 1
Format                           : MPEG Audio
Format version                   : Version 1
Format profile                   : Layer 3
Codec ID                         : 55
Codec ID/Hint                    : MP3
Duration                         : 1h 35mn
Bit rate mode                    : Constant
Bit rate                         : 128 Kbps
Channel(s)                       : 2 channels
Sampling rate                    : 44.1 KHz
Stream size                      : 87.2 MiB (6%)
Alignment                        : Split accross interleaves
Interleave, duration             : 40 ms (1.00 video frame)
Interleave, preload duration     : 500 ms

::NOTES::::::::: 
Presenting the first TS of Hangover Part II. 
Enjoy. //EP1C
[/code]
Screens:
[img]http://img155.imageshack.us/img155/1618/63105301.png[/img]
[img]http://img219.imageshack.us/img219/8107/32337764.png[/img]
[img]http://img171.imageshack.us/img171/2884/34549044.png[/img]
[img]http://img402.imageshack.us/img402/3644/93393138.png[/img]
[img]http://img830.imageshack.us/img830/3891/33660428.png[/img]